<svg width="537" height="568" viewBox="0 0 537 568" fill="none" xmlns="http://www.w3.org/2000/svg">
<mask id="mask0" mask-type="alpha" maskUnits="userSpaceOnUse" x="0" y="0" width="537" height="568">
<rect width="536.248" height="568" fill="#C4C4C4"/>
</mask>
<g mask="url(#mask0)">
<circle cx="267.682" cy="253.458" r="189.186" fill="white"/>
<ellipse cx="268.124" cy="738.11" rx="268.124" ry="392.484" fill="white"/>
<path d="M148.174 189.955C103.722 198.422 72.0292 256.986 61.7393 285.209C28.5178 245.961 -8.02592 146.032 111.572 60.3025C261.068 -46.8589 320.162 22.377 340.006 17.9671C359.851 13.5571 358.087 44.8678 369.994 37.3709C381.901 29.874 463.926 99.551 475.832 144.973C487.739 190.396 483.329 273.303 463.926 285.209C444.522 297.116 396.013 189.955 389.839 167.464C383.665 144.973 343.093 100.874 340.006 118.955C336.919 137.035 203.739 179.371 148.174 189.955Z" fill="#0500FF"/>
</g>
<circle cx="192.93" cy="254.993" r="22.3325" stroke="black" stroke-width="12"/>
<circle cx="348.086" cy="254.993" r="22.3325" stroke="black" stroke-width="12"/>
</svg>
