<svg width="491" height="741" viewBox="0 0 491 741" fill="none" xmlns="http://www.w3.org/2000/svg">
<mask id="mask0" mask-type="alpha" maskUnits="userSpaceOnUse" x="0" y="0" width="491" height="741">
<rect width="491" height="741" fill="#C4C4C4"/>
</mask>
<g mask="url(#mask0)">
<path d="M140.821 587.959C91.2612 594.116 -4.8848 631.842 7.00955 733.484V1077.25H481.883V716.364C483.986 677.917 458.545 594.897 339.962 570.388L140.821 587.959Z" fill="#C4C4C4" stroke="black" stroke-width="9.91196"/>
<path d="M183.625 741.143L249.405 684.375C237.151 677.498 216.966 588.097 208.405 544.256C134.155 565.882 117.695 628.057 118.746 656.441C127.757 644.907 194.288 630.61 226.427 624.903C178.489 652.296 177.919 713.81 183.625 741.143Z" fill="#676767"/>
<path d="M361.14 648.331C360.779 580.57 311.129 548.311 286.349 540.651C282.745 584.624 260.218 654.789 249.405 684.375L337.711 733.935C351.768 702.937 312.331 642.624 290.855 616.343C300.226 624.993 341.616 641.273 361.14 648.331Z" fill="#676767"/>
<path d="M249.405 684.375L337.711 733.935C351.768 702.937 312.331 642.624 290.855 616.343C300.226 624.993 341.616 641.273 361.14 648.331C360.779 580.57 311.129 548.311 286.349 540.651C282.745 584.624 260.218 654.789 249.405 684.375ZM249.405 684.375L183.625 741.143C177.919 713.81 178.489 652.296 226.427 624.903C194.288 630.61 127.757 644.907 118.746 656.441C117.695 628.057 134.155 565.882 208.405 544.256C216.966 588.097 237.151 677.498 249.405 684.375Z" stroke="black" stroke-width="9.91196"/>
<path d="M206.601 518.996C214.26 568.52 234.174 671.381 252.556 686.629C262.768 647.531 283.193 562.004 283.193 532.68V513.62L206.601 518.996Z" fill="white" stroke="black" stroke-width="9.91196"/>
<path d="M46.207 239.238C46.9579 318.234 73.6001 484.875 174.161 519.476C274.723 554.078 322.53 497.989 339.5 466C374.5 394.5 370.238 211.215 350.774 203.645C308.123 188.627 220.567 149.941 211.556 115.339C207.201 151.533 178.487 226.984 46.207 239.238Z" fill="white"/>
<ellipse cx="127.652" cy="292.742" rx="13.9668" ry="24.3293" transform="rotate(-13.5216 127.652 292.742)" fill="black"/>
<ellipse cx="300.66" cy="272.016" rx="13.9668" ry="24.3293" transform="rotate(-13.5216 300.66 272.016)" fill="black"/>
<path d="M132.711 252.756C116.342 252.155 85.134 253.928 91.2614 265.822" stroke="black" stroke-width="7.2087"/>
<path d="M277.337 237.437C281.242 227.375 294.277 209.143 315.183 216.712" stroke="black" stroke-width="7.2087"/>
<path d="M219.217 237.437L249.403 402.786H219.217" stroke="black" stroke-width="10.813"/>
<path d="M253.006 687.98V1074.55" stroke="black" stroke-width="9.91196"/>
<path d="M212.66 2.35104C65.6022 10.641 39.6509 164.096 45.0574 239.787C154.27 244.474 202.297 162.744 212.66 121.294C293.037 205.635 359.086 212.905 382.063 205.997C386.869 134.661 359.717 -5.93896 212.66 2.35104Z" fill="black"/>
</g>
</svg>
