<svg width="179" height="270" viewBox="0 0 179 270" fill="none" xmlns="http://www.w3.org/2000/svg">
<mask id="mask0" mask-type="alpha" maskUnits="userSpaceOnUse" x="0" y="0" width="179" height="270">
<rect x="0.275391" width="178.724" height="269.724" fill="#C4C4C4"/>
</mask>
<g mask="url(#mask0)">
<path d="M51.5319 214.016C33.4921 216.257 -1.50504 229.989 2.82451 266.987V392.118H175.678V260.755C176.444 246.761 167.183 216.542 124.019 207.62L51.5319 214.016Z" fill="#C4C4C4" stroke="black" stroke-width="3.60795"/>
<path d="M67.1133 269.776L91.0569 249.112C86.5966 246.609 79.2491 214.067 76.1329 198.109C49.106 205.981 43.1147 228.612 43.4973 238.944C46.7773 234.746 70.9945 229.542 82.6931 227.464C65.2437 237.436 65.036 259.827 67.1133 269.776Z" fill="#676767"/>
<path d="M131.728 235.992C131.597 211.327 113.525 199.585 104.505 196.797C103.193 212.803 94.9929 238.343 91.0569 249.112L123.201 267.152C128.317 255.869 113.962 233.915 106.145 224.349C109.556 227.497 124.622 233.423 131.728 235.992Z" fill="#676767"/>
<path d="M91.0569 249.112L123.201 267.152C128.317 255.869 113.962 233.915 106.145 224.349C109.556 227.497 124.622 233.423 131.728 235.992C131.597 211.327 113.525 199.585 104.505 196.797C103.193 212.803 94.9929 238.343 91.0569 249.112ZM91.0569 249.112L67.1133 269.776C65.036 259.827 65.2437 237.436 82.6931 227.464C70.9945 229.542 46.7773 234.746 43.4973 238.944C43.1147 228.612 49.106 205.981 76.1329 198.109C79.2491 214.067 86.5966 246.609 91.0569 249.112Z" stroke="black" stroke-width="3.60795"/>
<path d="M75.4766 188.914C78.2645 206.941 85.5132 244.382 92.2043 249.932C95.9216 235.701 103.356 204.569 103.356 193.895V186.957L75.4766 188.914Z" fill="white" stroke="black" stroke-width="3.60795"/>
<path d="M17.0918 87.0828C17.3651 115.837 27.0629 176.494 63.6672 189.089C100.271 201.684 121.777 181.546 127.954 169.902C130.906 139.125 135.039 76.8821 127.954 74.127C112.429 68.6604 80.559 54.5784 77.279 41.9834C75.6937 55.1579 65.2416 82.6221 17.0918 87.0828Z" fill="white"/>
<ellipse cx="46.7382" cy="106.557" rx="5.08393" ry="8.85588" transform="rotate(-13.5216 46.7382 106.557)" fill="black"/>
<ellipse cx="109.713" cy="99.0135" rx="5.08393" ry="8.85588" transform="rotate(-13.5216 109.713 99.0135)" fill="black"/>
<path d="M48.5809 92.0019C42.6223 91.7833 31.2627 92.4283 33.4931 96.7579" stroke="black" stroke-width="2.62397"/>
<path d="M101.223 86.4267C102.644 82.764 107.389 76.1276 114.998 78.8828" stroke="black" stroke-width="2.62397"/>
<path d="M80.0684 86.4268L91.0562 146.614H80.0684" stroke="black" stroke-width="3.93595"/>
<path d="M92.3672 250.424V391.134" stroke="black" stroke-width="3.60795"/>
<path d="M77.6833 0.855318C24.1544 3.87288 14.7082 59.7305 16.6761 87.2822C56.4294 88.988 73.9115 59.2384 77.6833 44.1504C106.941 74.8508 130.983 77.4969 139.346 74.9823C141.096 49.016 131.212 -2.16224 77.6833 0.855318Z" fill="black"/>
</g>
</svg>
