<svg width="271" height="408" viewBox="0 0 271 408" fill="none" xmlns="http://www.w3.org/2000/svg">
<mask id="mask0" mask-type="alpha" maskUnits="userSpaceOnUse" x="0" y="0" width="271" height="408">
<rect width="270.049" height="407.549" fill="#C4C4C4"/>
</mask>
<g mask="url(#mask0)">
<path d="M77.4501 323.376C50.1923 326.763 -2.68779 347.512 3.85408 403.415V592.485H265.034V393.998C266.19 372.853 252.198 327.192 186.977 313.712L77.4501 323.376Z" fill="#C4C4C4" stroke="black" stroke-width="5.45156"/>
<path d="M100.992 407.627L137.17 376.404C130.431 372.622 119.329 323.451 114.62 299.339C73.7834 311.233 64.7305 345.429 65.3087 361.041C70.2646 354.697 106.856 346.833 124.533 343.695C98.1671 358.761 97.8532 392.594 100.992 407.627Z" fill="#676767"/>
<path d="M198.624 356.58C198.426 319.311 171.119 301.569 157.49 297.356C155.508 321.542 143.118 360.132 137.17 376.404L185.739 403.662C193.47 386.613 171.78 353.441 159.968 338.987C165.122 343.744 187.887 352.698 198.624 356.58Z" fill="#676767"/>
<path d="M137.17 376.404L185.739 403.662C193.47 386.613 171.78 353.441 159.968 338.987C165.122 343.744 187.887 352.698 198.624 356.58C198.426 319.311 171.119 301.569 157.49 297.356C155.508 321.542 143.118 360.132 137.17 376.404ZM137.17 376.404L100.992 407.627C97.8532 392.594 98.1671 358.761 124.533 343.695C106.856 346.833 70.2646 354.697 65.3087 361.041C64.7305 345.429 73.7834 311.233 114.62 299.339C119.329 323.451 130.431 372.622 137.17 376.404Z" stroke="black" stroke-width="5.45156"/>
<path d="M113.629 285.446C117.841 312.684 128.794 369.257 138.904 377.644C144.521 356.14 155.755 309.1 155.755 292.972V282.489L113.629 285.446Z" fill="white" stroke="black" stroke-width="5.45156"/>
<path d="M25.4121 131.58C25.8251 175.027 40.4782 266.68 95.7868 285.71C151.095 304.741 179 271 188 254C205 207.5 203.629 116.167 192.924 112.004C169.465 103.744 121.31 82.4664 116.354 63.4355C113.959 83.342 98.1656 124.84 25.4121 131.58Z" fill="white"/>
<ellipse cx="70.2068" cy="161.007" rx="7.68174" ry="13.3811" transform="rotate(-13.5216 70.2068 161.007)" fill="black"/>
<ellipse cx="165.361" cy="149.608" rx="7.68174" ry="13.3811" transform="rotate(-13.5216 165.361 149.608)" fill="black"/>
<path d="M72.9914 139.015C63.988 138.685 46.8239 139.659 50.1939 146.201" stroke="black" stroke-width="3.96477"/>
<path d="M152.535 130.589C154.683 125.055 161.852 115.028 173.35 119.191" stroke="black" stroke-width="3.96477"/>
<path d="M120.568 130.59L137.171 221.532H120.568" stroke="black" stroke-width="5.94715"/>
<path d="M139.152 378.388V590.998" stroke="black" stroke-width="5.45156"/>
<path d="M116.962 1.29268C36.081 5.85217 21.8079 90.2522 24.7814 131.882C84.848 134.46 111.263 89.5087 116.962 66.7109C161.17 113.099 197.497 117.097 210.134 113.297C212.777 74.0627 197.844 -3.2668 116.962 1.29268Z" fill="black"/>
</g>
</svg>
