<svg width="588" height="575" viewBox="0 0 588 575" fill="none" xmlns="http://www.w3.org/2000/svg">
<mask id="mask0" mask-type="alpha" maskUnits="userSpaceOnUse" x="0" y="0" width="588" height="575">
<rect width="588" height="575" fill="#C4C4C4"/>
</mask>
<g mask="url(#mask0)">
<path d="M476.38 572.516C542.897 500.773 581.69 408.789 584.224 316.801C586.759 224.812 552.827 140.353 489.894 82.0045C426.961 23.6556 340.182 -3.80359 248.647 5.66747C157.112 15.1385 68.3196 60.7641 1.80249 132.507L119.004 241.171C152.667 204.864 197.603 181.773 243.927 176.98C290.251 172.187 334.169 186.084 366.018 215.613C397.867 245.142 415.039 287.885 413.756 334.439C412.474 380.993 392.842 427.544 359.179 463.852L476.38 572.516Z" fill="#0019FF"/>
</g>
</svg>
