<svg width="186" height="270" viewBox="0 0 186 270" fill="none" xmlns="http://www.w3.org/2000/svg">
<mask id="mask0" mask-type="alpha" maskUnits="userSpaceOnUse" x="7" y="0" width="179" height="270">
<rect x="7.27539" width="178.724" height="269.724" fill="#C4C4C4"/>
</mask>
<g mask="url(#mask0)">
<path d="M58.5319 214.016C40.4921 216.257 5.49496 229.989 9.82451 266.987V392.118H182.678V260.755C183.444 246.761 174.183 216.542 131.019 207.62L58.5319 214.016Z" fill="#C4C4C4" stroke="black" stroke-width="3.60795"/>
<path d="M74.1133 269.776L98.0569 249.112C93.5966 246.609 86.2491 214.067 83.1329 198.109C56.106 205.981 50.1147 228.612 50.4973 238.944C53.7773 234.746 77.9945 229.542 89.6931 227.464C72.2437 237.436 72.036 259.827 74.1133 269.776Z" fill="#676767"/>
<path d="M138.728 235.992C138.597 211.327 120.525 199.585 111.505 196.797C110.193 212.803 101.993 238.343 98.0569 249.112L130.201 267.152C135.317 255.869 120.962 233.915 113.145 224.349C116.556 227.497 131.622 233.423 138.728 235.992Z" fill="#676767"/>
<path d="M98.0569 249.112L130.201 267.152C135.317 255.869 120.962 233.915 113.145 224.349C116.556 227.497 131.622 233.423 138.728 235.992C138.597 211.327 120.525 199.585 111.505 196.797C110.193 212.803 101.993 238.343 98.0569 249.112ZM98.0569 249.112L74.1133 269.776C72.036 259.827 72.2437 237.436 89.6931 227.464C77.9945 229.542 53.7773 234.746 50.4973 238.944C50.1147 228.612 56.106 205.981 83.1329 198.109C86.2491 214.067 93.5966 246.609 98.0569 249.112Z" stroke="black" stroke-width="3.60795"/>
<path d="M82.4766 188.914C85.2645 206.941 92.5132 244.382 99.2043 249.932C102.922 235.701 110.356 204.569 110.356 193.895V186.957L82.4766 188.914Z" fill="white" stroke="black" stroke-width="3.60795"/>
<path d="M24.0918 87.0828C24.3651 115.837 34.0629 176.494 70.6672 189.089C107.271 201.684 128.777 181.546 134.954 169.902C137.906 139.125 142.039 76.8821 134.954 74.127C119.429 68.6604 87.559 54.5784 84.279 41.9834C82.6937 55.1579 72.2416 82.6221 24.0918 87.0828Z" fill="white"/>
<ellipse cx="53.7382" cy="106.557" rx="5.08393" ry="8.85588" transform="rotate(-13.5216 53.7382 106.557)" fill="black"/>
<ellipse cx="116.713" cy="99.0135" rx="5.08393" ry="8.85588" transform="rotate(-13.5216 116.713 99.0135)" fill="black"/>
<path d="M55.5809 92.0019C49.6223 91.7833 38.2627 92.4283 40.4931 96.7579" stroke="black" stroke-width="2.62397"/>
<path d="M108.223 86.4267C109.644 82.764 114.389 76.1276 121.998 78.8828" stroke="black" stroke-width="2.62397"/>
<path d="M87.0684 86.4268L98.0562 146.614H87.0684" stroke="black" stroke-width="3.93595"/>
<path d="M80.6719 163.998C88.9811 167.715 106.059 171.837 107.896 158.586" stroke="black" stroke-width="3.27996"/>
<path d="M99.3672 250.424V391.134" stroke="black" stroke-width="3.60795"/>
<path d="M84.6833 0.855318C31.1544 3.87288 21.7082 59.7305 23.6761 87.2822C63.4294 88.988 80.9115 59.2384 84.6833 44.1504C113.941 74.8508 137.983 77.4969 146.346 74.9823C148.096 49.016 138.212 -2.16224 84.6833 0.855318Z" fill="black"/>
</g>
<path d="M40.1517 138.245C61.2223 138.245 78.3033 121.394 78.3033 100.608C78.3033 79.8221 61.2223 62.9717 40.1517 62.9717C19.0811 62.9717 2 79.8221 2 100.608C2 121.394 19.0811 138.245 40.1517 138.245Z" fill="black" fill-opacity="0.3" stroke="black" stroke-width="3.14961" stroke-miterlimit="10"/>
<mask id="mask1" mask-type="alpha" maskUnits="userSpaceOnUse" x="76" y="90" width="16" height="14">
<path d="M89.5 96.8485C89.5 99.3556 87.1085 101.724 83.7161 101.724C80.3236 101.724 77.9322 99.3556 77.9322 96.8485C77.9322 94.3414 80.3236 91.9732 83.7161 91.9732C87.1085 91.9732 89.5 94.3414 89.5 96.8485Z" stroke="black" stroke-width="3.0831"/>
</mask>
<g mask="url(#mask1)">
<rect x="73.3672" y="90.21" width="22.0926" height="6.63812" fill="black"/>
</g>
<path d="M127.902 138.244C148.972 138.244 166.053 121.393 166.053 100.607C166.053 79.8211 148.972 62.9707 127.902 62.9707C106.831 62.9707 89.75 79.8211 89.75 100.607C89.75 121.393 106.831 138.244 127.902 138.244Z" fill="black" fill-opacity="0.3" stroke="black" stroke-width="3.14961" stroke-miterlimit="10"/>
</svg>
