<svg width="168" height="79" viewBox="0 0 168 79" fill="none" xmlns="http://www.w3.org/2000/svg">
<path d="M40.1517 77.2445C61.2223 77.2445 78.3033 60.3941 78.3033 39.6081C78.3033 18.8221 61.2223 1.97168 40.1517 1.97168C19.0811 1.97168 2 18.8221 2 39.6081C2 60.3941 19.0811 77.2445 40.1517 77.2445Z" fill="black" fill-opacity="0.3" stroke="black" stroke-width="3.14961" stroke-miterlimit="10"/>
<mask id="mask0" mask-type="alpha" maskUnits="userSpaceOnUse" x="76" y="29" width="16" height="14">
<path d="M89.5 35.8485C89.5 38.3556 87.1085 40.7238 83.7161 40.7238C80.3236 40.7238 77.9322 38.3556 77.9322 35.8485C77.9322 33.3414 80.3236 30.9732 83.7161 30.9732C87.1085 30.9732 89.5 33.3414 89.5 35.8485Z" stroke="black" stroke-width="3.0831"/>
</mask>
<g mask="url(#mask0)">
<rect x="73.3672" y="29.21" width="22.0926" height="6.63812" fill="black"/>
</g>
<path d="M127.902 77.2435C148.972 77.2435 166.053 60.3931 166.053 39.6071C166.053 18.8211 148.972 1.9707 127.902 1.9707C106.831 1.9707 89.75 18.8211 89.75 39.6071C89.75 60.3931 106.831 77.2435 127.902 77.2435Z" fill="black" fill-opacity="0.3" stroke="black" stroke-width="3.14961" stroke-miterlimit="10"/>
</svg>
