<svg width="461" height="217" viewBox="0 0 461 217" fill="none" xmlns="http://www.w3.org/2000/svg">
<path d="M109.812 211.793C167.698 211.793 214.625 165.501 214.625 108.397C214.625 51.2923 167.698 5 109.812 5C51.9261 5 5 51.2923 5 108.397C5 165.501 51.9261 211.793 109.812 211.793Z" fill="black" fill-opacity="0.3" stroke="black" stroke-width="8.65278" stroke-miterlimit="10"/>
<mask id="mask0" mask-type="alpha" maskUnits="userSpaceOnUse" x="210" y="80" width="41" height="36">
<path d="M246.765 98.0701C246.765 104.89 240.105 111.464 230.5 111.464C220.895 111.464 214.235 104.89 214.235 98.0701C214.235 91.2501 220.895 84.6764 230.5 84.6764C240.105 84.6764 246.765 91.2501 246.765 98.0701Z" stroke="black" stroke-width="8.47004"/>
</mask>
<g mask="url(#mask0)">
<rect x="201.54" y="79.834" width="61.8254" height="18.2366" fill="black"/>
</g>
<path d="M350.883 211.793C408.769 211.793 455.695 165.501 455.695 108.397C455.695 51.2923 408.769 5 350.883 5C292.996 5 246.07 51.2923 246.07 108.397C246.07 165.501 292.996 211.793 350.883 211.793Z" fill="black" fill-opacity="0.3" stroke="black" stroke-width="8.65278" stroke-miterlimit="10"/>
</svg>
