<svg width="254" height="120" viewBox="0 0 254 120" fill="none" xmlns="http://www.w3.org/2000/svg">
<path d="M60.6466 116.737C92.4839 116.737 118.293 91.2763 118.293 59.869C118.293 28.4617 92.4839 3.00098 60.6466 3.00098C28.8092 3.00098 3 28.4617 3 59.869C3 91.2763 28.8092 116.737 60.6466 116.737Z" fill="black" fill-opacity="0.3" stroke="black" stroke-width="4.75902" stroke-miterlimit="10"/>
<mask id="mask0" mask-type="alpha" maskUnits="userSpaceOnUse" x="115" y="44" width="23" height="20">
<path d="M135.21 54.1889C135.21 57.9771 131.597 61.5554 126.471 61.5554C121.345 61.5554 117.732 57.9771 117.732 54.1889C117.732 50.4007 121.345 46.8224 126.471 46.8224C131.597 46.8224 135.21 50.4007 135.21 54.1889Z" stroke="black" stroke-width="4.65851"/>
</mask>
<g mask="url(#mask0)">
<rect x="110.834" y="44.1592" width="33.3816" height="10.0301" fill="black"/>
</g>
<path d="M193.234 116.736C225.072 116.736 250.881 91.2754 250.881 59.868C250.881 28.4607 225.072 3 193.234 3C161.397 3 135.588 28.4607 135.588 59.868C135.588 91.2754 161.397 116.736 193.234 116.736Z" fill="black" fill-opacity="0.3" stroke="black" stroke-width="4.75902" stroke-miterlimit="10"/>
</svg>
