<svg width="629" height="624" viewBox="0 0 629 624" fill="none" xmlns="http://www.w3.org/2000/svg">
<path d="M131.47 139.928L248.68 242.158L154.288 120.154L258.178 235.486L181.049 105.1L269.06 230.692L211.093 95.1346L281.059 227.896L243.681 90.5045L293.878 227.166L278.01 91.3233L307.203 228.52L313.236 97.571L320.705 231.924L348.489 109.094L334.052 237.295L382.904 125.607L346.914 244.501L415.631 146.706L358.976 253.363L445.865 171.869L369.94 263.665L472.863 200.478L379.536 275.151L495.958 231.828L387.529 287.54L514.583 265.147L393.721 300.526L528.278 299.615L397.959 313.79L536.707 334.383L400.14 327.005L539.662 368.595L400.209 339.845L537.07 401.408L398.166 351.994L528.995 432.014L394.06 363.154L515.636 459.661L387.992 373.049L497.322 483.666L380.112 381.436L474.504 503.44L370.614 388.108L447.743 518.494L359.732 392.901L417.698 528.459L347.733 395.697L385.11 533.089L334.913 396.428L350.781 532.271L321.589 395.074L315.556 526.023L308.087 391.67L280.302 514.5L294.74 386.299L245.888 497.986L281.878 379.093L213.161 476.888L269.816 370.23L182.926 451.725L258.852 359.929L155.929 423.116L249.255 348.443L132.834 391.766L241.263 336.054L114.209 358.446L235.071 323.067L100.513 323.979L230.833 309.804L92.0844 289.211L228.652 296.589L89.1295 254.999L228.582 283.749L91.7214 222.186L230.626 271.599L99.7963 191.58L234.732 260.44L113.155 163.933L240.8 250.545L131.47 139.928Z" fill="#0019FF"/>
</svg>
