<svg width="979" height="979" viewBox="0 0 979 979" fill="none" xmlns="http://www.w3.org/2000/svg">
<path d="M489.5 0L504.17 303.104L566.075 6.02655L533.148 307.694L640.764 23.9578L561.051 316.76L711.728 53.3523L587.193 330.08L777.221 93.4862L610.929 347.325L835.629 143.371L631.675 368.071L885.514 201.779L648.92 391.807L925.648 267.272L662.24 417.949L955.042 338.236L671.306 445.852L972.973 412.925L675.896 474.83L979 489.5L675.896 504.17L972.973 566.075L671.306 533.148L955.042 640.764L662.24 561.051L925.648 711.728L648.92 587.193L885.514 777.221L631.675 610.929L835.629 835.629L610.929 631.675L777.221 885.514L587.193 648.92L711.728 925.648L561.051 662.24L640.764 955.042L533.148 671.306L566.075 972.973L504.17 675.896L489.5 979L474.83 675.896L412.925 972.973L445.852 671.306L338.236 955.042L417.949 662.24L267.272 925.648L391.807 648.92L201.779 885.514L368.071 631.675L143.371 835.629L347.325 610.929L93.4862 777.221L330.08 587.193L53.3523 711.728L316.76 561.051L23.9578 640.764L307.694 533.148L6.02655 566.075L303.104 504.17L0 489.5L303.104 474.83L6.02655 412.925L307.694 445.852L23.9578 338.236L316.76 417.949L53.3523 267.272L330.08 391.807L93.4862 201.779L347.325 368.071L143.371 143.371L368.071 347.325L201.779 93.4862L391.807 330.08L267.272 53.3523L417.949 316.76L338.236 23.9578L445.852 307.694L412.925 6.02655L474.83 303.104L489.5 0Z" fill="#F62F2F"/>
</svg>
