<svg width="707" height="702" viewBox="0 0 707 702" fill="none" xmlns="http://www.w3.org/2000/svg">
<path d="M353.5 0L383.719 212.331L497.688 30.6481L438.932 236.913L616.945 117.293L479.372 281.828L690.65 244.953L498.049 339.307L706.058 391.555L491.731 399.414L660.506 531.75L461.512 451.755L561.87 641.297L412.617 487.279L427.205 701.253L353.5 499.845L279.795 701.253L294.383 487.279L145.13 641.297L245.488 451.755L46.494 531.75L215.269 399.414L0.941986 391.555L208.951 339.307L16.3505 244.953L227.628 281.828L90.0551 117.293L268.068 236.913L209.312 30.6481L323.281 212.331L353.5 0Z" fill="#FF9900"/>
</svg>
