<svg width="385" height="503" viewBox="0 0 385 503" fill="none" xmlns="http://www.w3.org/2000/svg">
<path d="M192.396 0.796875L198.15 156.219L222.432 3.8871L209.517 158.572L251.728 13.0817L220.462 163.221L279.563 28.1542L230.715 170.051L305.251 48.7336L240.025 178.894L328.161 74.3131L248.163 189.532L347.728 104.263L254.927 201.703L363.47 137.845L260.151 215.108L374.999 174.234L263.708 229.416L382.033 212.532L265.508 244.275L384.396 251.797L265.508 259.319L382.033 291.062L263.708 274.178L374.999 329.36L260.151 288.486L363.47 365.748L254.927 301.891L347.728 399.331L248.163 314.062L328.161 429.281L240.025 324.7L305.251 454.86L230.715 333.542L279.563 475.44L220.462 340.372L251.728 490.512L209.517 345.021L222.432 499.707L198.15 347.375L192.396 502.797L186.642 347.375L162.361 499.707L175.276 345.021L133.065 490.512L164.331 340.372L105.23 475.44L154.078 333.542L79.5417 454.86L144.768 324.7L56.632 429.281L136.63 314.062L37.0652 399.331L129.866 301.891L21.3232 365.748L124.641 288.486L9.79364 329.36L121.085 274.178L2.76033 291.062L119.285 259.319L0.396484 251.797L119.285 244.275L2.76033 212.532L121.085 229.416L9.79364 174.234L124.641 215.108L21.3232 137.845L129.866 201.703L37.0652 104.263L136.63 189.532L56.632 74.3131L144.768 178.894L79.5417 48.7336L154.078 170.051L105.23 28.1542L164.331 163.221L133.065 13.0817L175.276 158.572L162.361 3.8871L186.642 156.219L192.396 0.796875Z" fill="#F9A603"/>
</svg>
