<svg width="177" height="70" viewBox="0 0 177 70" fill="none" xmlns="http://www.w3.org/2000/svg">
<path fill-rule="evenodd" clip-rule="evenodd" d="M20.3989 0.116006C18.5489 0.511003 17.053 1.68759 16.2782 3.35715C15.9904 3.97783 15.924 4.74261 15.9193 7.50041C15.9109 12.4662 16.2206 13.2105 20.6115 18.7743C23.6131 22.5775 23.9034 23.2041 23.9833 26.0511C24.0352 27.908 23.981 28.4323 23.6761 29.0233C23.357 29.6415 23.1905 29.7491 22.4737 29.8018C21.8332 29.8488 21.5496 29.7614 21.2416 29.4222C20.8852 29.0297 20.8306 28.5762 20.739 25.2615L20.6363 21.5415H18.0696H15.5029L15.5066 25.9603L15.5101 30.3788L16.1957 31.7692C17.2947 33.9973 18.9105 34.8113 22.279 34.8337C24.742 34.8498 26.2075 34.3837 27.4342 33.1936C29.1101 31.5675 29.6871 29.3359 29.5138 25.1506C29.3483 21.1594 28.9859 20.3547 25.0726 15.2896C21.3634 10.4888 21.2761 10.3201 21.1815 7.77037C21.0848 5.15995 21.3205 4.63069 22.58 4.63069C23.887 4.63069 24.0244 5.00601 24.0244 8.57717V11.6127L26.5397 11.5551L29.0551 11.4975L29.0516 7.91037C29.0473 3.59902 28.8409 2.66247 27.6299 1.4576C27.1716 1.00152 26.4268 0.509773 25.9751 0.364852C24.9307 0.0297096 21.5166 -0.12259 20.3989 0.116006ZM0 17.4419V34.5578H2.56424H5.12828L5.18228 27.0247L5.23608 19.4917H6.98144H8.7268L8.7806 27.0247L8.8346 34.5578H11.3986H13.9629V17.4419V0.326111H11.3988H8.83501L8.7808 7.14169L8.7268 13.9573H6.98144H5.23608L5.18208 7.14169L5.12787 0.326111H2.56404H0V17.4419ZM31.0058 17.4419V34.5578H37.0632H43.1206V31.893V29.2283H39.7326H36.3445V24.3088V19.3892H38.9113H41.478V16.827V14.2647H38.9113H36.3445V9.75519V5.24563H39.6299H42.9153V2.78587V0.326111H36.9606H31.0058V17.4419ZM51.4561 6.73173C51.0236 10.2549 50.5021 14.521 50.2967 16.2121C48.6491 29.7895 48.2395 33.1182 48.1337 33.7891L48.0126 34.5578H50.3655H52.7185L52.8528 33.2766C52.9267 32.5721 53.092 31.093 53.2201 29.9898L53.4528 27.9838L55.3195 28.0425L57.1862 28.1009L57.5281 31.1756C57.7162 32.8667 57.8778 34.3196 57.8874 34.404C57.8971 34.4885 59.0244 34.5578 60.3925 34.5578H62.8802L62.7405 33.3791C62.6635 32.731 62.243 29.4794 61.8056 26.1536C61.3683 22.8278 60.4305 15.6561 59.7219 10.2164L58.4332 0.326111H55.3378H52.2425L51.4561 6.73173ZM63.7044 17.3907L63.757 34.4553H66.3237H68.8904L68.9442 26.8198L68.998 19.1843H69.7863C70.8088 19.1843 71.7922 19.5325 71.9971 19.9673C72.0864 20.1567 72.2094 23.4017 72.2702 27.1785C72.3312 30.9552 72.4558 34.1607 72.5472 34.3015C72.6655 34.4842 73.4546 34.5578 75.2919 34.5578H77.8703L77.7057 34.0965C77.6149 33.843 77.4886 30.2224 77.425 26.0511C77.2962 17.6229 77.255 17.3681 75.8732 16.464L75.2213 16.0372L75.8925 15.4489C77.1414 14.3543 77.3092 13.5104 77.3092 8.32033C77.3092 4.04588 77.2771 3.6392 76.8716 2.76373C76.3681 1.67693 75.4088 0.874022 74.2291 0.552409C73.7433 0.419787 71.4156 0.327956 68.5298 0.327341L63.652 0.326111L63.7044 17.3907ZM78.2332 2.78587V5.24563H80.4919H82.7506V19.9017V34.5578H85.3173H87.884V19.9017V5.24563H90.04H92.1961V2.78587V0.326111H85.2146H78.2332V2.78587ZM101.231 0.515102C101.231 0.624767 100.767 4.47839 100.2 9.07834C99.6329 13.6783 98.7984 20.4859 98.3455 24.2063C97.8927 27.9267 97.4325 31.5878 97.3231 32.3423C96.9705 34.773 96.7824 34.5797 99.4333 34.5133L101.742 34.4553L102.091 31.3806C102.283 29.6895 102.445 28.2366 102.451 28.1521C102.458 28.0677 103.294 27.9984 104.311 27.9984C105.327 27.9984 106.167 28.0677 106.176 28.1521C106.186 28.2366 106.348 29.6895 106.536 31.3806L106.878 34.4553L109.401 34.5129L111.924 34.5705L111.795 33.5905C111.723 33.0514 110.721 25.3695 109.568 16.5195L107.47 0.428601L104.351 0.372026C102.424 0.33718 101.231 0.391909 101.231 0.515102ZM112.73 17.4419V34.5578H115.091H117.452L117.47 24.8725L117.488 15.1872L119.719 24.0013C120.946 28.8491 122.059 33.2073 122.192 33.6866L122.434 34.5578H124.563H126.693V17.4419V0.326111H124.331H121.97V9.27697C121.97 14.1998 121.922 18.1797 121.863 18.121C121.758 18.0159 120.697 13.7703 118.673 5.34812C118.103 2.9806 117.59 0.882016 117.531 0.684826C117.438 0.370386 117.136 0.326111 115.077 0.326111H112.73V17.4419ZM128.541 17.4608V34.5955L133.417 34.5219C137.837 34.4551 138.381 34.4081 139.218 34.0207C140.389 33.4787 141.214 32.6564 141.764 31.4831C142.186 30.5811 142.197 30.2774 142.254 17.776C142.321 3.33112 142.334 3.4826 140.854 1.88006C139.564 0.482716 138.797 0.326111 133.24 0.326111H128.541V17.4608ZM71.8117 5.59573C72.1236 6.07108 72.1758 6.64236 72.1758 9.57788C72.1758 12.7403 72.1425 13.0498 71.7441 13.5838C71.3731 14.0813 71.1501 14.1709 70.1528 14.2237L68.993 14.2852V9.66295V5.04065H70.2203C71.3279 5.04065 71.4831 5.09476 71.8117 5.59573ZM136.534 5.58077C136.952 6.11208 136.959 6.30148 136.959 17.237C136.959 28.1724 136.952 28.3618 136.534 28.8931C136.167 29.358 135.953 29.4333 134.994 29.4333H133.879V17.237V5.04065H134.994C135.953 5.04065 136.167 5.11588 136.534 5.58077ZM105.042 17.3931C105.352 20.2975 105.557 22.7234 105.496 22.7843C105.435 22.845 104.842 22.8669 104.179 22.8331L102.972 22.7714L103.582 16.8467C103.975 13.0343 104.243 11.1341 104.335 11.5172C104.413 11.8445 104.731 14.4888 105.042 17.3931ZM56.5361 22.1052L56.6338 22.8739H55.3187C54.4061 22.8739 54.0018 22.7954 53.9983 22.6177C53.9858 22.0122 55.0782 11.6738 55.184 11.395C55.248 11.2259 55.5566 13.3936 55.8696 16.2121C56.1825 19.0305 56.4825 21.6826 56.5361 22.1052ZM33.9183 34.9599C31.7247 35.3041 29.9171 36.7502 29.3539 38.6112C28.9847 39.8311 28.8713 43.419 29.1465 45.1716C29.5233 47.5707 30.575 49.5104 33.5612 53.3134C36.9918 57.6822 37.0466 57.8004 37.13 61.0043C37.1916 63.3742 37.163 63.6134 36.7556 64.1302C36.1893 64.8489 34.9698 64.9149 34.3743 64.2589C34.0261 63.8752 33.9762 63.4257 33.9189 60.1593L33.8546 56.4906H31.3009H28.7471V60.6554C28.7471 65.4642 28.9442 66.4805 30.1307 67.7915C31.1144 68.8786 32.1076 69.3578 33.9791 69.6481C35.1573 69.8311 35.8891 69.8311 37.0673 69.6481C39.6634 69.2453 40.9763 68.2851 42.0264 66.0222C42.5545 64.8835 42.6028 64.5627 42.6747 61.6983C42.8034 56.5724 42.3784 55.4686 38.1837 50.0337C34.4943 45.2536 34.3971 45.0546 34.3953 42.2796C34.3936 39.7964 34.5587 39.4773 35.8454 39.4773C36.9304 39.4773 37.0523 39.8255 37.1659 43.2487L37.2686 46.3441L39.8059 46.4019L42.343 46.4595L42.2558 42.5073C42.1849 39.3037 42.0985 38.3888 41.7991 37.679C41.3589 36.6354 40.1361 35.5322 39.0669 35.2137C37.9874 34.8923 35.2193 34.756 33.9183 34.9599ZM56.2622 34.9601C55.754 35.0554 55.0848 35.2319 54.7751 35.3523C53.839 35.7163 52.4368 37.1665 51.922 38.3034L51.4368 39.3748L51.3797 52.3164C51.3242 64.8487 51.3355 65.2931 51.7347 66.3575C52.277 67.8034 53.1606 68.8427 54.3033 69.3789C55.4595 69.9215 57.0893 69.9432 58.2129 69.4308C59.0942 69.029 60.6326 67.4911 61.0346 66.6101C61.2689 66.0966 61.3011 66.1474 61.7157 67.6864L62.1508 69.3018L63.6212 69.3621L65.0916 69.4224V59.0619V48.7014H61.4983H57.9049V51.2636V53.8259H59.0342H60.1636V58.4482C60.1636 62.1728 60.1032 63.1867 59.8529 63.6698C59.4921 64.3667 58.4973 64.7191 57.6765 64.4412C56.5852 64.0714 56.5753 63.9761 56.5065 53.0059C56.4716 47.4254 56.5022 42.3675 56.5747 41.7665C56.7324 40.4602 57.218 39.886 58.1615 39.8903C59.5172 39.8967 59.7529 40.4411 59.7529 43.5633V46.0366H62.3196H64.8863V43.4096C64.8863 40.283 64.6288 38.6977 63.9036 37.3611C63.3087 36.2644 62.6557 35.719 61.4151 35.2819C60.3685 34.9134 57.4755 34.7326 56.2622 34.9601ZM92.141 34.9622C90.023 35.3463 88.6733 36.3683 87.8021 38.2474C87.4292 39.0517 87.3741 39.5634 87.3725 42.2445C87.3696 46.9785 87.8458 48.1496 91.8624 53.2855C95.3028 57.6848 95.3625 57.8137 95.4455 61.0043C95.5071 63.3742 95.4786 63.6134 95.0712 64.1302C94.5049 64.8489 93.2854 64.9149 92.6899 64.2589C92.3416 63.8752 92.2917 63.4257 92.2345 60.1593L92.1702 56.4906H89.6164H87.0626V60.6554C87.0626 65.4642 87.2598 66.4805 88.4462 67.7915C89.43 68.8786 90.4232 69.3578 92.2946 69.6481C93.4728 69.8311 94.2047 69.8311 95.3829 69.6481C97.9789 69.2453 99.2919 68.2851 100.342 66.0222C100.87 64.8835 100.918 64.5627 100.99 61.6983C101.119 56.5703 100.693 55.4659 96.4939 50.0337C93.1129 45.6603 92.7706 45.0179 92.6492 42.8197C92.5071 40.2464 92.8492 39.4773 94.1363 39.4773C95.249 39.4773 95.3673 39.8091 95.4814 43.2487L95.5841 46.3441L98.1214 46.4019L100.659 46.4595L100.571 42.5073C100.5 39.3037 100.414 38.3888 100.115 37.679C99.6734 36.633 98.4516 35.5324 97.3734 35.21C96.2972 34.8882 93.325 34.7474 92.141 34.9622ZM107.802 34.8831C104.942 35.384 103.514 36.5889 102.776 39.1225C102.488 40.1109 102.455 41.78 102.51 52.7257C102.566 64.063 102.605 65.2875 102.934 66.1361C103.462 67.5005 104.368 68.4815 105.701 69.135C106.793 69.6702 107.055 69.7118 109.342 69.7112C112.121 69.7104 113.103 69.4103 114.329 68.1859C115.887 66.6305 116.212 65.0508 116.217 59.0016L116.22 54.4408H113.654H111.087V58.7148C111.087 63.1313 110.945 64.122 110.258 64.4891C109.548 64.8681 108.679 64.7228 108.227 64.1497C107.808 63.618 107.802 63.4325 107.802 52.2041C107.802 39.2862 107.727 39.8872 109.322 39.8872C110.875 39.8872 110.974 40.1465 111.049 44.4177L111.113 48.0864H113.667H116.22V44.4345C116.22 42.4259 116.12 40.2379 115.996 39.5726C115.418 36.4487 113.712 35.0807 110.158 34.8913C109.144 34.8371 108.084 34.8335 107.802 34.8831ZM138.91 34.9558C136.647 35.3168 135.285 36.3183 134.372 38.2931L133.777 39.5798L133.711 51.5711C133.641 64.2805 133.679 64.9243 134.603 66.7396C135.205 67.9201 135.98 68.6478 137.267 69.2389C138.157 69.6476 138.622 69.7106 140.758 69.7112C143.054 69.7118 143.304 69.6718 144.418 69.1258C145.768 68.4639 146.544 67.5429 147.268 65.7444C147.729 64.5984 147.734 64.4787 147.8 53.2417C147.873 41.0351 147.795 39.7382 146.886 37.8659C146.324 36.7086 145.15 35.6972 143.837 35.2391C142.899 34.9122 140.168 34.7551 138.91 34.9558ZM154.706 34.9556C152.51 35.3004 150.884 36.5828 150.059 38.6217C149.589 39.7808 149.587 39.8251 149.527 51.5697C149.474 61.7494 149.51 63.5542 149.793 64.821C150.599 68.4379 153.122 70.0597 157.479 69.7614C160.386 69.5626 162.087 68.4161 163.064 65.9978L163.55 64.7923L163.614 53.0059C163.659 44.6989 163.608 40.858 163.441 39.9948C162.982 37.6255 161.828 36.0555 160.058 35.3947C158.835 34.9376 156.198 34.7213 154.706 34.9556ZM0 52.2861V69.4312L4.87674 69.3664C9.72535 69.3023 9.76005 69.2986 10.9077 68.7359C11.6621 68.3661 12.2598 67.885 12.6331 67.3474C13.7341 65.7616 13.7575 65.4423 13.7575 52.0762C13.7575 38.4778 13.7454 38.3333 12.4849 36.9001C12.1333 36.5003 11.4674 35.9713 11.005 35.7243C10.2163 35.3031 9.84917 35.2711 5.08208 35.2082L0 35.1411V52.2861ZM15.6056 52.2885V69.4043H21.663H27.7204V66.7396V64.0749H24.3324H20.9443V59.1553V54.2358H23.511H26.0777V51.6736V49.1113H23.511H20.9443V44.6018V40.0922H24.2297H27.5151V37.6325V35.1727H21.5603H15.6056V52.2885ZM44.1974 52.2373L44.25 69.3018L46.868 69.3592L49.4861 69.4166V52.2947V35.1727H46.8155H44.1451L44.1974 52.2373ZM66.9397 52.2885V69.4043H69.301H71.6624L71.6795 59.8215L71.6963 50.2387L74.1063 59.7703L76.5162 69.3018H78.658H80.7999V52.2885V35.2752L78.3872 35.2174L75.9745 35.1598L75.9572 44.0315L75.94 52.9035L74.931 48.8039C74.3759 46.5491 73.3983 42.5596 72.7583 39.9385L71.5949 35.1727H69.2674H66.9397V52.2885ZM117.863 52.2885V69.4043H120.43H122.997V61.9226V54.4408H124.739H126.482L126.536 61.8713L126.59 69.3018L129.208 69.3592L131.826 69.4166V52.2947V35.1727H129.157H126.487V42.0395V48.9063H124.742H122.997V42.0395V35.1727H120.43H117.863V52.2885ZM165.501 52.2885V69.4043H171.251H177V66.7396V64.0749H173.817H170.635V49.6238V35.1727H168.068H165.501V52.2885ZM7.99313 40.4274C8.41181 40.9587 8.41879 41.1481 8.41879 52.0835C8.41879 63.019 8.41181 63.2084 7.99313 63.7397C7.61901 64.2147 7.42086 64.2798 6.35044 64.2798H5.13341V52.0835V39.8872H6.35044C7.42086 39.8872 7.61901 39.9524 7.99313 40.4274ZM141.674 40.0879C141.881 40.1982 142.152 40.5809 142.277 40.9384C142.582 41.8116 142.594 62.7855 142.29 63.5835C142.009 64.3219 141.515 64.6752 140.753 64.6832C139.889 64.6923 139.272 64.1991 139.022 63.3002C138.745 62.3042 138.731 42.3033 139.007 41.3438C139.116 40.9626 139.361 40.4788 139.552 40.2689C139.93 39.8518 141.053 39.756 141.674 40.0879ZM157.727 40.2792L158.212 40.6709V52.2885V63.9062L157.727 64.2979C157.182 64.7386 156.119 64.804 155.627 64.427C154.84 63.8238 154.824 63.571 154.824 52.0876V40.8935L155.328 40.3905C155.949 39.7708 157.036 39.7204 157.727 40.2792Z" fill="white"/>
</svg>
