<svg width="149" height="59" viewBox="0 0 149 59" fill="none" xmlns="http://www.w3.org/2000/svg">
<path fill-rule="evenodd" clip-rule="evenodd" d="M17.172 0.0976551C15.6146 0.430166 14.3553 1.42062 13.7032 2.82607C13.4608 3.34857 13.405 3.99236 13.401 6.3139C13.3939 10.4942 13.6546 11.1207 17.3509 15.8044C19.8777 19.0059 20.1221 19.5334 20.1893 21.93C20.2331 23.4932 20.1874 23.9346 19.9307 24.432C19.6621 24.9525 19.5219 25.0431 18.9185 25.0874C18.3794 25.1269 18.1407 25.0534 17.8814 24.7678C17.5813 24.4374 17.5353 24.0557 17.4582 21.2653L17.3718 18.1338H15.2111H13.0505L13.0536 21.8536L13.0565 25.5731L13.6337 26.7436C14.5588 28.6192 15.919 29.3044 18.7546 29.3232C20.828 29.3369 22.0617 28.9445 23.0943 27.9426C24.5051 26.5738 24.9909 24.6952 24.845 21.172C24.7057 17.8122 24.4006 17.1347 21.1063 12.8709C17.9839 8.82956 17.9104 8.68755 17.8307 6.54115C17.7493 4.34368 17.9478 3.89815 19.008 3.89815C20.1083 3.89815 20.2239 4.2141 20.2239 7.22033V9.77567L22.3414 9.72719L24.4588 9.6787L24.4559 6.65901C24.4522 3.02969 24.2785 2.24129 23.259 1.22702C22.8732 0.843087 22.2463 0.429131 21.866 0.307135C20.9869 0.0250098 18.1128 -0.103197 17.172 0.0976551ZM0 14.6828V29.091H2.1586H4.31702L4.36248 22.7496L4.40777 16.4083H5.87703H7.34629L7.39158 22.7496L7.43704 29.091H9.59546H11.7541V14.6828V0.274523H9.59563H7.43738L7.39175 6.01193L7.34629 11.7493H5.87703H4.40777L4.36231 6.01193L4.31668 0.274523H2.15843H0V14.6828ZM26.1009 14.6828V29.091H31.2001H36.2993V26.8478V24.6046H33.4472H30.5951V20.4633V16.322H32.7558H34.9165V14.1651V12.0082H32.7558H30.5951V8.21199V4.41581H33.3608H36.1264V2.34517V0.274523H31.1137H26.1009V14.6828ZM43.3161 5.66683C42.9521 8.63268 42.5131 12.2239 42.3402 13.6474C40.9532 25.077 40.6084 27.8791 40.5194 28.4439L40.4174 29.091H42.3981H44.3788L44.4919 28.0125C44.5541 27.4195 44.6933 26.1743 44.8011 25.2456L44.997 23.557L46.5684 23.6064L48.1398 23.6555L48.4276 26.2439C48.5859 27.6674 48.722 28.8905 48.7301 28.9616C48.7382 29.0327 49.6872 29.091 50.8389 29.091H52.933L52.8155 28.0988C52.7507 27.5532 52.3967 24.816 52.0285 22.0163C51.6603 19.2166 50.8709 13.1795 50.2744 8.60024L49.1895 0.274523H46.5838H43.9782L43.3161 5.66683ZM53.6269 14.6396L53.6711 29.0047H55.8318H57.9925L58.0377 22.5771L58.083 16.1495H58.7466C59.6074 16.1495 60.4352 16.4426 60.6077 16.8086C60.6829 16.9681 60.7865 19.6998 60.8376 22.8791C60.889 26.0584 60.9939 28.7568 61.0708 28.8753C61.1704 29.029 61.8347 29.091 63.3813 29.091H65.5519L65.4132 28.7027C65.3368 28.4893 65.2305 25.4415 65.177 21.93C65.0686 14.8351 65.0338 14.6206 63.8707 13.8595L63.3219 13.5002L63.8869 13.005C64.9382 12.0836 65.0795 11.3732 65.0795 7.00412C65.0795 3.40585 65.0525 3.06351 64.7111 2.32653C64.2873 1.41165 63.4797 0.735759 62.4867 0.465022C62.0777 0.35338 60.1182 0.276076 57.6889 0.275558L53.5828 0.274523L53.6269 14.6396ZM65.8573 2.34517V4.41581H67.7587H69.6601V16.7534V29.091H71.8208H73.9814V16.7534V4.41581H75.7964H77.6114V2.34517V0.274523H71.7343H65.8573V2.34517ZM85.2169 0.433617C85.2169 0.525933 84.8265 3.76994 84.349 7.64222C83.8718 11.5145 83.1693 17.2452 82.788 20.377C82.4069 23.5089 82.0195 26.5909 81.9274 27.226C81.6306 29.2722 81.4722 29.1095 83.7038 29.0535L85.6475 29.0047L85.941 26.4164C86.1025 24.9928 86.239 23.7698 86.2444 23.6987C86.2497 23.6276 86.9541 23.5693 87.8097 23.5693C88.6654 23.5693 89.372 23.6276 89.3801 23.6987C89.3882 23.7698 89.5243 24.9928 89.6826 26.4164L89.9704 29.0047L92.0946 29.0532L94.2187 29.1017L94.1096 28.2767C94.0494 27.8229 93.2059 21.3563 92.2348 13.9063L90.4691 0.360799L87.8431 0.313175C86.2217 0.283841 85.2169 0.329912 85.2169 0.433617ZM94.8968 14.6828V29.091H96.8846H98.8724L98.8873 20.9378L98.9021 12.7847L100.78 20.2045C101.813 24.2854 102.75 27.9542 102.862 28.3576L103.066 29.091H104.858H106.651V14.6828V0.274523H104.663H102.675V7.80942C102.675 11.9535 102.635 15.3038 102.585 15.2544C102.497 15.1659 101.604 11.592 99.8995 4.50209C99.4203 2.50909 98.988 0.742488 98.9388 0.576492C98.8601 0.311794 98.6057 0.274523 96.873 0.274523H94.8968V14.6828ZM108.206 14.6986V29.1227L112.312 29.0608C116.032 29.0045 116.49 28.965 117.195 28.6389C118.181 28.1827 118.875 27.4904 119.338 26.5027C119.693 25.7434 119.702 25.4877 119.751 14.964C119.807 2.80416 119.818 2.93168 118.572 1.58265C117.486 0.406354 116.84 0.274523 112.162 0.274523H108.206V14.6986ZM60.4516 4.71053C60.7142 5.11068 60.7581 5.59159 60.7581 8.06273C60.7581 10.7249 60.7301 10.9854 60.3948 11.435C60.0824 11.8537 59.8947 11.9291 59.0552 11.9737L58.0789 12.0254V8.13434V4.24326H59.112C60.0444 4.24326 60.1751 4.28881 60.4516 4.71053ZM114.935 4.69794C115.288 5.1452 115.294 5.30464 115.294 14.5102C115.294 23.7158 115.288 23.8752 114.935 24.3225C114.627 24.7138 114.447 24.7771 113.639 24.7771H112.701V14.5102V4.24326H113.639C114.447 4.24326 114.627 4.30658 114.935 4.69794ZM88.4249 14.6417C88.6865 17.0866 88.8584 19.1288 88.8073 19.18C88.7559 19.2311 88.2571 19.2496 87.6984 19.2211L86.6827 19.1692L87.1963 14.1817C87.5268 10.9723 87.7527 9.37276 87.8298 9.69526C87.8957 9.97083 88.1636 12.1968 88.4249 14.6417ZM47.5925 18.6084L47.6748 19.2554H46.5677C45.7995 19.2554 45.4592 19.1893 45.4562 19.0397C45.4457 18.53 46.3653 9.82709 46.4543 9.59242C46.5082 9.45006 46.768 11.2748 47.0315 13.6474C47.2949 16.02 47.5474 18.2525 47.5925 18.6084ZM28.5527 29.4295C26.7061 29.7193 25.1845 30.9366 24.7103 32.5032C24.3995 33.5301 24.3041 36.5505 24.5357 38.0258C24.8529 40.0454 25.7383 41.6783 28.2521 44.8797C31.14 48.5573 31.1861 48.6568 31.2563 51.3539C31.3081 53.3489 31.2841 53.5503 30.9412 53.9853C30.4644 54.5903 29.4379 54.6458 28.9366 54.0937C28.6434 53.7707 28.6014 53.3922 28.5532 50.6426L28.4991 47.5542H26.3493H24.1995V51.0602C24.1995 55.1083 24.3655 55.9638 25.3642 57.0675C26.1924 57.9825 27.0285 58.3859 28.6039 58.6303C29.5957 58.7844 30.2117 58.7844 31.2036 58.6303C33.389 58.2912 34.4942 57.483 35.3782 55.578C35.8227 54.6194 35.8634 54.3494 35.9239 51.9381C36.0322 47.6231 35.6744 46.6939 32.1434 42.1188C29.0375 38.0948 28.9558 37.9273 28.9542 35.5913C28.9528 33.5009 29.0918 33.2323 30.1749 33.2323C31.0883 33.2323 31.191 33.5254 31.2865 36.4071L31.373 39.0128L33.5089 39.0615L35.6447 39.11L35.5712 35.783C35.5116 33.0861 35.4388 32.316 35.1868 31.7185C34.8162 30.84 33.7869 29.9113 32.8868 29.6432C31.9781 29.3726 29.6479 29.2578 28.5527 29.4295ZM47.3619 29.4297C46.9341 29.5099 46.3708 29.6585 46.1101 29.7598C45.3221 30.0663 44.1417 31.2871 43.7083 32.2441L43.2999 33.146L43.2518 44.0403C43.2052 54.5901 43.2147 54.9642 43.5507 55.8603C44.0072 57.0775 44.751 57.9523 45.7129 58.4037C46.6863 58.8605 48.0582 58.8788 49.0041 58.4474C49.7459 58.1092 51.041 56.8145 51.3794 56.0729C51.5766 55.6406 51.6038 55.6834 51.9528 56.9789L52.3191 58.3388L53.5569 58.3896L54.7947 58.4403V49.7187V40.9972H51.7697H48.7448V43.1541V45.311H49.6955H50.6462V49.2021C50.6462 52.3376 50.5954 53.191 50.3846 53.5978C50.0809 54.1844 49.2435 54.4811 48.5526 54.2471C47.6338 53.9358 47.6256 53.8555 47.5676 44.6208C47.5383 39.923 47.564 35.6653 47.625 35.1594C47.7578 34.0597 48.1666 33.5763 48.9608 33.58C50.102 33.5853 50.3005 34.0436 50.3005 36.672V38.754H52.4611H54.6218V36.5425C54.6218 33.9106 54.405 32.5761 53.7945 31.4508C53.2938 30.5277 52.7441 30.0685 51.6997 29.7006C50.8187 29.3904 48.3833 29.2382 47.3619 29.4297ZM77.565 29.4314C75.7821 29.7548 74.6459 30.6152 73.9125 32.197C73.5986 32.8741 73.5522 33.3048 73.5509 35.5618C73.5484 39.5469 73.9493 40.5327 77.3305 44.8562C80.2266 48.5595 80.2769 48.6681 80.3468 51.3539C80.3986 53.3489 80.3746 53.5503 80.0317 53.9853C79.5549 54.5903 78.5284 54.6458 78.0271 54.0937C77.7339 53.7707 77.6919 53.3922 77.6437 50.6426L77.5896 47.5542H75.4398H73.29V51.0602C73.29 55.1083 73.456 55.9638 74.4547 57.0675C75.2829 57.9825 76.119 58.3859 77.6943 58.6303C78.6862 58.7844 79.3022 58.7844 80.2941 58.6303C82.4794 58.2912 83.5847 57.483 84.4687 55.578C84.9132 54.6194 84.9539 54.3494 85.0144 51.9381C85.1227 47.6214 84.7644 46.6916 81.2294 42.1188C78.3832 38.4372 78.095 37.8964 77.9929 36.0459C77.8732 33.8797 78.1612 33.2323 79.2447 33.2323C80.1814 33.2323 80.2809 33.5116 80.377 36.4071L80.4635 39.0128L82.5994 39.0615L84.7352 39.11L84.6617 35.783C84.6021 33.0861 84.5293 32.316 84.2773 31.7185C83.9058 30.8379 82.8774 29.9115 81.9697 29.6401C81.0638 29.3691 78.5617 29.2506 77.565 29.4314ZM90.7483 29.3648C88.3411 29.7866 87.1386 30.8008 86.5175 32.9336C86.2751 33.7656 86.2477 35.1707 86.2935 44.3849C86.3408 53.9287 86.3733 54.9595 86.6504 55.6739C87.0955 56.8224 87.8578 57.6483 88.98 58.1984C89.899 58.6489 90.1198 58.6839 92.0447 58.6834C94.3846 58.6827 95.211 58.4301 96.2433 57.3995C97.5549 56.0901 97.8283 54.7602 97.8323 49.668L97.8353 45.8287H95.6746H93.5139V49.4266C93.5139 53.1445 93.3941 53.9784 92.8158 54.2875C92.2184 54.6065 91.4867 54.4842 91.1066 54.0017C90.7538 53.5541 90.7483 53.3979 90.7483 43.9458C90.7483 33.0715 90.6859 33.5774 92.0277 33.5774C93.3354 33.5774 93.4187 33.7957 93.4816 37.3912L93.5357 40.4795H95.6855H97.8353V37.4053C97.8353 35.7145 97.7504 33.8726 97.6467 33.3125C97.1598 30.6828 95.7233 29.5312 92.7318 29.3717C91.8785 29.3262 90.9859 29.3231 90.7483 29.3648ZM116.936 29.4261C115.031 29.73 113.884 30.5731 113.115 32.2354L112.614 33.3186L112.559 43.4129C112.5 54.1118 112.532 54.6538 113.31 56.1819C113.816 57.1757 114.469 57.7882 115.553 58.2859C116.302 58.6299 116.693 58.6829 118.491 58.6834C120.424 58.6839 120.634 58.6503 121.572 58.1906C122.709 57.6334 123.362 56.8582 123.971 55.3442C124.359 54.3794 124.363 54.2786 124.419 44.8193C124.48 34.5437 124.415 33.4519 123.65 31.8758C123.177 30.9016 122.188 30.0502 121.083 29.6646C120.294 29.3893 117.994 29.2572 116.936 29.4261ZM130.233 29.4259C128.384 29.7161 127.015 30.7956 126.321 32.512C125.925 33.4878 125.924 33.5251 125.873 43.4117C125.829 51.9811 125.859 53.5004 126.097 54.5668C126.775 57.6115 128.899 58.9768 132.567 58.7257C135.014 58.5583 136.446 57.5932 137.268 55.5574L137.678 54.5427L137.732 44.6208C137.769 37.6279 137.726 34.3946 137.586 33.668C137.2 31.6734 136.228 30.3518 134.738 29.7955C133.708 29.4107 131.489 29.2287 130.233 29.4259ZM0 44.0148V58.4477L4.10528 58.3932C8.18688 58.3392 8.21609 58.3361 9.18217 57.8624C9.81723 57.5511 10.3204 57.1461 10.6347 56.6935C11.5615 55.3587 11.5812 55.0898 11.5812 43.8381C11.5812 32.3909 11.571 32.2693 10.5099 31.0628C10.2139 30.7263 9.65337 30.2809 9.2641 30.073C8.60017 29.7184 8.29111 29.6915 4.27813 29.6385L0 29.5821V44.0148ZM13.1369 44.0169V58.4251H18.2361H23.3353V56.1819V53.9387H20.4832H17.6311V49.7974V45.6561H19.7918H21.9524V43.4992V41.3423H19.7918H17.6311V37.5461V33.7499H20.3968H23.1624V31.6793V29.6086H18.1497H13.1369V44.0169ZM37.2057 43.9737L37.25 58.3388L39.4539 58.3872L41.6578 58.4355V44.0221V29.6086H39.4096H37.1617L37.2057 43.9737ZM56.3503 44.0169V58.4251H58.3382H60.326L60.3403 50.3582L60.3545 42.2913L62.3833 50.3151L64.4119 58.3388H66.2149H68.018V44.0169V29.6949L65.9869 29.6463L63.9559 29.5978L63.9414 37.0661L63.9269 44.5345L63.0775 41.0835C62.6102 39.1854 61.7873 35.827 61.2485 33.6205L60.2691 29.6086H58.3098H56.3503V44.0169ZM99.2181 44.0169V58.4251H101.379H103.539V52.1269V45.8287H105.007H106.474L106.519 52.0838L106.564 58.3388L108.768 58.3872L110.972 58.4355V44.0221V29.6086H108.725H106.478V35.3892V41.1697H105.009H103.539V35.3892V29.6086H101.379H99.2181V44.0169ZM139.32 44.0169V58.4251H144.16H149V56.1819V53.9387H146.321H143.642V41.7737V29.6086H141.481H139.32V44.0169ZM6.72868 34.0321C7.08113 34.4793 7.08701 34.6388 7.08701 43.8443C7.08701 53.0499 7.08113 53.2093 6.72868 53.6566C6.41374 54.0564 6.24694 54.1113 5.34585 54.1113H4.32135V43.8443V33.5774H5.34585C6.24694 33.5774 6.41374 33.6323 6.72868 34.0321ZM119.262 33.7463C119.436 33.8391 119.664 34.1613 119.77 34.4622C120.026 35.1973 120.037 52.8534 119.781 53.5251C119.544 54.1466 119.128 54.4441 118.487 54.4509C117.76 54.4584 117.24 54.0433 117.03 53.2866C116.796 52.4482 116.785 35.6113 117.017 34.8036C117.109 34.4826 117.316 34.0754 117.476 33.8987C117.794 33.5475 118.739 33.467 119.262 33.7463ZM132.776 33.9073L133.184 34.2371V44.0169V53.7967L132.776 54.1265C132.317 54.4975 131.422 54.5525 131.008 54.2352C130.346 53.7273 130.332 53.5146 130.332 43.8478V34.4245L130.756 34.001C131.279 33.4794 132.194 33.4369 132.776 33.9073Z" fill="white"/>
</svg>
