<svg width="102" height="41" viewBox="0 0 102 41" fill="none" xmlns="http://www.w3.org/2000/svg">
<path fill-rule="evenodd" clip-rule="evenodd" d="M11.7553 0.0668512C10.6892 0.294476 9.82714 0.972508 9.38069 1.93463C9.21479 2.29231 9.17657 2.73303 9.17385 4.32227C9.16899 7.18394 9.34744 7.61285 11.8778 10.8191C13.6075 13.0108 13.7749 13.3719 13.8209 15.0125C13.8508 16.0826 13.8196 16.3847 13.6439 16.7253C13.46 17.0816 13.364 17.1436 12.9509 17.1739C12.5819 17.201 12.4184 17.1507 12.2409 16.9552C12.0355 16.729 12.0041 16.4677 11.9513 14.5575L11.8921 12.4138H10.413H8.93388L8.936 14.9602L8.93802 17.5064L9.33312 18.3077C9.96642 19.5917 10.8976 20.0608 12.8387 20.0736C14.2581 20.083 15.1026 19.8144 15.8095 19.1285C16.7753 18.1914 17.1078 16.9054 17.008 14.4936C16.9126 12.1936 16.7037 11.7298 14.4486 8.81098C12.3111 6.0444 12.2608 5.94718 12.2063 4.47784C12.1505 2.97353 12.2864 2.66853 13.0122 2.66853C13.7654 2.66853 13.8445 2.88482 13.8445 4.94277V6.69207L15.2941 6.65888L16.7436 6.62569L16.7416 4.55852C16.7391 2.07401 16.6202 1.53431 15.9223 0.839973C15.6582 0.577147 15.229 0.293767 14.9687 0.210254C14.3669 0.0171208 12.3994 -0.0706452 11.7553 0.0668512ZM0 10.0513V19.9146H1.4777H2.95528L2.9864 15.5736L3.0174 11.2325H4.0232H5.029L5.06 15.5736L5.09113 19.9146H6.56871H8.0464V10.0513V0.187928H6.56882H5.09136L5.06012 4.11555L5.029 8.04317H4.0232H3.0174L2.98628 4.11555L2.95504 0.187928H1.47758H0V10.0513ZM17.8678 10.0513V19.9146H21.3585H24.8492V18.379V16.8434H22.8968H20.9443V14.0084V11.1735H22.4234H23.9026V9.69691V8.22036H22.4234H20.9443V5.62163V3.0229H22.8376H24.7309V1.60542V0.187928H21.2993H17.8678V10.0513ZM29.6527 3.8793C29.4035 5.90962 29.1029 8.36802 28.9846 9.34254C28.0351 17.1668 27.799 19.0851 27.7381 19.4717L27.6683 19.9146H29.0242H30.3801L30.4575 19.1764C30.5001 18.7704 30.5954 17.918 30.6692 17.2822L30.8033 16.1263L31.879 16.1601L32.9548 16.1937L33.1518 17.9656C33.2602 18.9401 33.3533 19.7774 33.3589 19.826C33.3644 19.8747 34.014 19.9146 34.8025 19.9146H36.236L36.1556 19.2354C36.1112 18.8619 35.8689 16.9881 35.6168 15.0716C35.3648 13.155 34.8244 9.02219 34.416 5.88741L33.6734 0.187928H31.8896H30.1059L29.6527 3.8793ZM36.711 10.0218L36.7413 19.8556H38.2204H39.6995L39.7305 15.4555L39.7615 11.0553H40.2158C40.8051 11.0553 41.3718 11.256 41.4899 11.5066C41.5413 11.6157 41.6122 13.4857 41.6472 15.6622C41.6824 17.8386 41.7542 19.6858 41.8069 19.767C41.875 19.8722 42.3298 19.9146 43.3886 19.9146H44.8744L44.7795 19.6489C44.7272 19.5027 44.6545 17.4163 44.6178 15.0125C44.5436 10.1556 44.5198 10.0088 43.7236 9.48771L43.3479 9.24178L43.7347 8.90276C44.4544 8.27198 44.551 7.78566 44.551 4.79476C44.551 2.33152 44.5326 2.09717 44.2989 1.59266C44.0087 0.966365 43.4559 0.503674 42.7761 0.318337C42.4961 0.241911 41.1548 0.188991 39.4917 0.188637L36.6808 0.187928L36.711 10.0218ZM45.0835 1.60542V3.0229H46.3852H47.6868V11.4688V19.9146H49.1659H50.645V11.4688V3.0229H51.8875H53.1299V1.60542V0.187928H49.1067H45.0835V1.60542ZM58.3364 0.296839C58.3364 0.360035 58.0691 2.58077 57.7423 5.23159C57.4156 7.88241 56.9347 11.8054 56.6737 13.9494C56.4127 16.0933 56.1476 18.2031 56.0845 18.638C55.8813 20.0387 55.7729 19.9273 57.3006 19.889L58.6312 19.8556L58.8321 18.0837C58.9426 17.1092 59.0361 16.2719 59.0398 16.2233C59.0434 16.1746 59.5256 16.1347 60.1114 16.1347C60.6971 16.1347 61.1808 16.1746 61.1864 16.2233C61.192 16.2719 61.2851 17.1092 61.3935 18.0837L61.5905 19.8556L63.0446 19.8888L64.4987 19.922L64.424 19.3572C64.3828 19.0465 63.8054 14.6197 63.1406 9.51972L61.9319 0.24699L60.1342 0.214388C59.0243 0.194307 58.3364 0.225846 58.3364 0.296839ZM64.9629 10.0513V19.9146H66.3237H67.6845L67.6946 14.3333L67.7048 8.75192L68.9905 13.8313C69.6976 16.6249 70.3389 19.1364 70.4156 19.4126L70.5551 19.9146H71.7822H73.0093V10.0513V0.187928H71.6485H70.2877V5.34605C70.2877 8.18292 70.26 10.4764 70.2262 10.4426C70.1655 10.382 69.5543 7.93545 68.3876 3.08197C68.0596 1.71763 67.7636 0.508281 67.7299 0.394645C67.676 0.213443 67.5019 0.187928 66.3157 0.187928H64.9629V10.0513ZM74.0742 10.0622V19.9364L76.8846 19.894C79.4315 19.8555 79.7448 19.8284 80.2274 19.6052C80.9023 19.2928 81.3778 18.8189 81.6943 18.1428C81.9376 17.623 81.9439 17.448 81.977 10.2438C82.0152 1.91963 82.0229 2.00692 81.1702 1.08343C80.4266 0.278175 79.9846 0.187928 76.7822 0.187928H74.0742V10.0622ZM41.383 3.22466C41.5628 3.49859 41.5928 3.8278 41.5928 5.51946C41.5928 7.34187 41.5736 7.52024 41.3441 7.82795C41.1303 8.11464 41.0018 8.16626 40.427 8.19674L39.7587 8.23217V5.56848V2.90478H40.466C41.1042 2.90478 41.1937 2.93597 41.383 3.22466ZM78.6805 3.21604C78.9217 3.52221 78.9258 3.63136 78.9258 9.93316C78.9258 16.235 78.9217 16.3441 78.6805 16.6503C78.4694 16.9182 78.3459 16.9615 77.793 16.9615H77.1508V9.93316V2.90478H77.793C78.3459 2.90478 78.4694 2.94813 78.6805 3.21604ZM60.5325 10.0232C60.7115 11.6969 60.8293 13.0949 60.7942 13.1299C60.7591 13.1649 60.4176 13.1776 60.0352 13.1581L59.3399 13.1225L59.6914 9.70825C59.9177 7.51126 60.0723 6.41625 60.1251 6.63703C60.1702 6.82567 60.3536 8.34947 60.5325 10.0232ZM32.5801 12.7386L32.6364 13.1816H31.8785C31.3527 13.1816 31.1197 13.1363 31.1177 13.0339C31.1105 12.685 31.74 6.72727 31.8009 6.56662C31.8378 6.46917 32.0157 7.71833 32.196 9.34254C32.3764 10.9667 32.5492 12.495 32.5801 12.7386ZM19.5461 20.1464C18.282 20.3447 17.2404 21.1781 16.9158 22.2505C16.703 22.9535 16.6377 25.0211 16.7963 26.0311C17.0134 27.4136 17.6195 28.5314 19.3404 30.723C21.3173 33.2406 21.3489 33.3087 21.3969 35.155C21.4324 36.5207 21.416 36.6586 21.1812 36.9564C20.8549 37.3705 20.1521 37.4086 19.8089 37.0306C19.6083 36.8094 19.5795 36.5504 19.5465 34.6681L19.5095 32.5539H18.0378H16.5661V34.9539C16.5661 37.7251 16.6797 38.3108 17.3634 39.0663C17.9303 39.6927 18.5027 39.9689 19.5812 40.1362C20.2601 40.2417 20.6819 40.2417 21.3608 40.1362C22.8569 39.9041 23.6135 39.3508 24.2186 38.0467C24.523 37.3905 24.5508 37.2056 24.5922 35.555C24.6664 32.601 24.4214 31.9649 22.0042 28.833C19.878 26.0783 19.8221 25.9637 19.821 24.3645C19.8201 22.9335 19.9152 22.7496 20.6567 22.7496C21.2819 22.7496 21.3522 22.9503 21.4176 24.923L21.4768 26.7068L22.939 26.7401L24.4011 26.7733L24.3508 24.4957C24.31 22.6496 24.2601 22.1224 24.0876 21.7133C23.8339 21.1119 23.1293 20.4762 22.5131 20.2926C21.8911 20.1074 20.2959 20.0289 19.5461 20.1464ZM32.4223 20.1465C32.1294 20.2014 31.7438 20.3031 31.5653 20.3725C31.0259 20.5823 30.2178 21.418 29.9211 22.0731L29.6415 22.6906L29.6086 30.1484C29.5767 37.3704 29.5832 37.6265 29.8132 38.2399C30.1257 39.0732 30.6349 39.6721 31.2934 39.9811C31.9597 40.2937 32.8989 40.3063 33.5464 40.011C34.0543 39.7794 34.9408 38.8932 35.1725 38.3855C35.3075 38.0896 35.3261 38.1188 35.565 39.0057L35.8157 39.9367L36.6631 39.9714L37.5104 40.0061V34.0357V28.0652H35.4397H33.3689V29.5417V31.0183H34.0197H34.6705V33.682C34.6705 35.8284 34.6357 36.4127 34.4915 36.6911C34.2836 37.0927 33.7103 37.2958 33.2373 37.1356C32.6084 36.9225 32.6027 36.8676 32.5631 30.5458C32.543 27.3299 32.5606 24.4152 32.6024 24.0688C32.6932 23.316 32.9731 22.9852 33.5168 22.9876C34.298 22.9913 34.4339 23.305 34.4339 25.1043V26.5296H35.913H37.3921V25.0157C37.3921 23.214 37.2437 22.3004 36.8258 21.5301C36.483 20.8981 36.1067 20.5838 35.3918 20.332C34.7886 20.1196 33.1215 20.0154 32.4223 20.1465ZM53.0982 20.1477C51.8776 20.3691 51.0999 20.958 50.5978 22.0409C50.3829 22.5044 50.3512 22.7992 50.3503 24.3443C50.3486 27.0724 50.623 27.7472 52.9376 30.7069C54.9203 33.2421 54.9547 33.3164 55.0025 35.155C55.038 36.5207 55.0215 36.6586 54.7868 36.9564C54.4604 37.3705 53.7577 37.4086 53.4145 37.0306C53.2138 36.8094 53.1851 36.5504 53.1521 34.6681L53.115 32.5539H51.6434H50.1717V34.9539C50.1717 37.7251 50.2853 38.3108 50.969 39.0663C51.5359 39.6927 52.1083 39.9689 53.1867 40.1362C53.8657 40.2417 54.2874 40.2417 54.9664 40.1362C56.4624 39.9041 57.219 39.3508 57.8242 38.0467C58.1285 37.3905 58.1563 37.2056 58.1977 35.555C58.2719 32.5999 58.0266 31.9634 55.6067 28.833C53.6583 26.3127 53.461 25.9425 53.3911 24.6757C53.3092 23.1928 53.5063 22.7496 54.248 22.7496C54.8893 22.7496 54.9574 22.9409 55.0232 24.923L55.0824 26.7068L56.5446 26.7401L58.0066 26.7733L57.9564 24.4957C57.9155 22.6496 57.8657 22.1224 57.6932 21.7133C57.4389 21.1105 56.7348 20.4763 56.1135 20.2905C55.4933 20.1051 53.7805 20.0239 53.0982 20.1477ZM62.123 20.1021C60.4751 20.3908 59.6519 21.0851 59.2267 22.5451C59.0608 23.1147 59.042 24.0766 59.0734 30.3843C59.1058 36.9176 59.1281 37.6233 59.3177 38.1124C59.6224 38.8986 60.1443 39.4639 60.9125 39.8405C61.5416 40.1489 61.6927 40.1729 63.0104 40.1726C64.6123 40.1721 65.178 39.9991 65.8847 39.2936C66.7825 38.3973 66.9697 37.4869 66.9725 34.0009L66.9745 31.3727H65.4954H64.0162V33.8357C64.0162 36.3808 63.9342 36.9517 63.5383 37.1632C63.1294 37.3816 62.6285 37.2979 62.3683 36.9676C62.1268 36.6612 62.123 36.5543 62.123 30.0837C62.123 22.6395 62.0802 22.9859 62.9988 22.9859C63.894 22.9859 63.951 23.1353 63.9941 25.5966L64.0312 27.7108H65.5028H66.9745V25.6063C66.9745 24.4488 66.9164 23.188 66.8454 22.8045C66.512 21.0043 65.5287 20.216 63.4808 20.1068C62.8967 20.0756 62.2857 20.0735 62.123 20.1021ZM80.0499 20.144C78.746 20.3521 77.9611 20.9292 77.4347 22.0672L77.0916 22.8087L77.0538 29.7189C77.0137 37.043 77.0354 37.414 77.568 38.4601C77.9145 39.1404 78.3613 39.5597 79.1032 39.9004C79.6161 40.1359 79.884 40.1722 81.1148 40.1726C82.4379 40.1729 82.5818 40.1499 83.2238 39.8352C84.0019 39.4538 84.4491 38.923 84.8661 37.8866C85.1318 37.2262 85.1347 37.1572 85.1731 30.6816C85.2147 23.6474 85.1702 22.9 84.6463 21.821C84.3223 21.1541 83.6456 20.5713 82.8888 20.3073C82.3487 20.1189 80.7747 20.0284 80.0499 20.144ZM89.1526 20.1439C87.887 20.3426 86.9501 21.0816 86.4745 22.2566C86.204 22.9246 86.2029 22.9501 86.168 29.7181C86.1377 35.5844 86.1585 36.6245 86.3212 37.3545C86.7858 39.4388 88.2397 40.3734 90.7505 40.2015C92.4257 40.0869 93.4061 39.4262 93.9689 38.0326L94.2494 37.3379L94.2861 30.5458C94.3119 25.7587 94.2824 23.5453 94.1861 23.0479C93.9219 21.6825 93.2566 20.7778 92.2369 20.3969C91.5317 20.1335 90.0124 20.0089 89.1526 20.1439ZM0 30.1309V40.0112L2.81032 39.9739C5.60444 39.9369 5.62444 39.9348 6.28578 39.6105C6.72052 39.3974 7.06498 39.1202 7.2801 38.8103C7.91458 37.8965 7.92807 37.7125 7.92807 30.01C7.92807 22.1736 7.92109 22.0904 7.19467 21.2644C6.99209 21.0341 6.60835 20.7292 6.34187 20.5869C5.88736 20.3441 5.67579 20.3257 2.92865 20.2894L0 20.2508V30.1309ZM8.99304 30.1324V39.9957H12.4838H15.9745V38.4601V36.9245H14.022H12.0696V34.0895V31.2545H13.5487H15.0278V29.778V28.3014H13.5487H12.0696V25.7027V23.104H13.9629H15.8561V21.6865V20.269H12.4246H8.99304V30.1324ZM25.4697 30.1028L25.5 39.9367L27.0087 39.9697L28.5174 40.0028V30.1359V20.269H26.9784H25.4395L25.4697 30.1028ZM38.5754 30.1324V39.9957H39.9362H41.297L41.3068 34.4734L41.3165 28.9511L42.7053 34.4439L44.0941 39.9367H45.3284H46.5626V30.1324V20.3281L45.1723 20.2948L43.7819 20.2616L43.772 25.3741L43.762 30.4867L43.1806 28.1243C42.8607 26.8249 42.2973 24.5258 41.9285 23.0154L41.2581 20.269H39.9168H38.5754V30.1324ZM67.9211 30.1324V39.9957H69.4002H70.8793V35.6842V31.3727H71.8837H72.888L72.9191 35.6547L72.9501 39.9367L74.4588 39.9697L75.9675 40.0028V30.1359V20.269H74.4292H72.891V24.2262V28.1833H71.8851H70.8793V24.2262V20.269H69.4002H67.9211V30.1324ZM95.3736 30.1324V39.9957H98.6868H102V38.4601V36.9245H100.166H98.3318V28.5968V20.269H96.8527H95.3736V30.1324ZM4.60621 23.2971C4.84749 23.6033 4.85151 23.7124 4.85151 30.0142C4.85151 36.316 4.84749 36.4252 4.60621 36.7314C4.39061 37.0051 4.27643 37.0426 3.65958 37.0426H2.95824V30.0142V22.9859H3.65958C4.27643 22.9859 4.39061 23.0234 4.60621 23.2971ZM81.6427 23.1015C81.7618 23.1651 81.918 23.3856 81.9899 23.5916C82.1656 24.0948 82.1728 36.1815 81.9977 36.6413C81.8357 37.0668 81.5508 37.2705 81.1117 37.2751C80.6141 37.2803 80.2584 36.9961 80.1143 36.4781C79.9546 35.9041 79.9466 24.3782 80.1055 23.8253C80.1686 23.6055 80.31 23.3268 80.4197 23.2058C80.6376 22.9654 81.2847 22.9103 81.6427 23.1015ZM90.8935 23.2117L91.1729 23.4375V30.1324V36.8273L90.8935 37.053C90.5793 37.307 89.9668 37.3447 89.6834 37.1274C89.2299 36.7798 89.2204 36.6341 89.2204 30.0166V23.5657L89.5109 23.2759C89.8686 22.9188 90.4952 22.8897 90.8935 23.2117Z" fill="white"/>
</svg>
