<svg width="50" height="20" viewBox="0 0 50 20" fill="none" xmlns="http://www.w3.org/2000/svg">
<path fill-rule="evenodd" clip-rule="evenodd" d="M5.76241 0.0327702C5.23979 0.144351 4.81723 0.476719 4.59838 0.948347C4.51705 1.12368 4.49832 1.33972 4.49698 2.11876C4.49461 3.52154 4.58208 3.73179 5.82245 5.30348C6.67036 6.37782 6.75238 6.55484 6.77494 7.35906C6.78962 7.88362 6.7743 8.03173 6.68817 8.19867C6.59803 8.37331 6.55099 8.40371 6.34849 8.41859C6.16758 8.43185 6.08747 8.40718 6.00046 8.31135C5.89977 8.20047 5.88434 8.07238 5.85847 7.13602L5.82947 6.08518H5.10441H4.37935L4.38039 7.33341L4.38138 8.58159L4.57506 8.97435C4.8855 9.60377 5.34194 9.8337 6.2935 9.84002C6.98927 9.84459 7.40325 9.71292 7.74977 9.37673C8.2232 8.91738 8.38619 8.28697 8.33724 7.10469C8.29049 5.97724 8.18811 5.74991 7.08266 4.31911C6.03486 2.96294 6.01021 2.91529 5.98347 2.19502C5.95615 1.45761 6.02274 1.3081 6.37854 1.3081C6.74774 1.3081 6.78654 1.41413 6.78654 2.42293V3.28043L7.4971 3.26416L8.20766 3.24789L8.20667 2.23457C8.20545 1.01667 8.14716 0.752111 7.80505 0.411751C7.67558 0.282915 7.4652 0.144004 7.33759 0.103065C7.04258 0.00839255 6.07813 -0.03463 5.76241 0.0327702ZM0 4.9271V9.76208H0.724362H1.44867L1.46392 7.63411L1.47912 5.50614H1.97216H2.4652L2.48039 7.63411L2.49565 9.76208H3.21995H3.94432V4.9271V0.0921217H3.22001H2.49577L2.48045 2.01743L2.4652 3.94273H1.97216H1.47912L1.46386 2.01743L1.44855 0.0921217H0.724304H0V4.9271ZM8.7587 4.9271V9.76208H10.4698H12.181V9.00933V8.25658H11.2239H10.2668V6.86688V5.47719H10.9919H11.7169V4.75339V4.02959H10.9919H10.2668V2.7557V1.48182H11.1949H12.123V0.786969V0.0921217H10.4408H8.7587V4.9271ZM14.5356 1.90162C14.4135 2.89687 14.2661 4.10197 14.2081 4.57968C13.7427 8.41512 13.627 9.35542 13.5971 9.54494L13.5629 9.76208H14.2276H14.8922L14.9302 9.40018C14.951 9.20116 14.9977 8.78333 15.0339 8.47169L15.0997 7.90504L15.627 7.9216L16.1543 7.9381L16.2509 8.80666C16.304 9.28437 16.3497 9.69479 16.3524 9.71865C16.3551 9.74251 16.6735 9.76208 17.06 9.76208H17.7628L17.7233 9.42913C17.7016 9.24604 17.5828 8.32751 17.4592 7.38802C17.3357 6.44853 17.0708 4.42264 16.8706 2.88599L16.5066 0.0921217H15.6321H14.7578L14.5356 1.90162ZM17.9956 4.91262L18.0104 9.73313H18.7355H19.4606L19.4758 7.5762L19.4909 5.41928H19.7136C20.0025 5.41928 20.2803 5.51766 20.3382 5.64048C20.3634 5.69398 20.3981 6.61066 20.4153 7.67754C20.4325 8.74442 20.4677 9.64992 20.4936 9.6897C20.527 9.74129 20.7499 9.76208 21.2689 9.76208H21.9973L21.9508 9.63179C21.9251 9.56017 21.8894 8.53741 21.8715 7.35906C21.8351 4.97823 21.8234 4.90625 21.4331 4.65084L21.249 4.53028L21.4386 4.3641C21.7914 4.05489 21.8387 3.8165 21.8387 2.35037C21.8387 1.1429 21.8297 1.02802 21.7151 0.780715C21.5729 0.473708 21.3019 0.246899 20.9687 0.156048C20.8314 0.118584 20.1739 0.0926428 19.3587 0.0924691L17.9808 0.0921217L17.9956 4.91262ZM22.0998 0.786969V1.48182H22.7378H23.3759V5.62195V9.76208H24.1009H24.826V5.62195V1.48182H25.435H26.0441V0.786969V0.0921217H24.0719H22.0998V0.786969ZM28.5963 0.145509C28.5963 0.176488 28.4653 1.26508 28.305 2.5645C28.1449 3.86393 27.9092 5.78697 27.7812 6.83793C27.6533 7.88889 27.5233 8.92311 27.4924 9.13625C27.3928 9.82288 27.3397 9.76827 28.0885 9.74951L28.7408 9.73313L28.8393 8.86457C28.8934 8.38686 28.9393 7.97644 28.9411 7.95258C28.9429 7.92872 29.1792 7.90915 29.4664 7.90915C29.7535 7.90915 29.9906 7.92872 29.9933 7.95258C29.9961 7.97644 30.0417 8.38686 30.0948 8.86457L30.1914 9.73313L30.9042 9.7494L31.617 9.76567L31.5804 9.48883C31.5602 9.33654 31.2771 7.16653 30.9513 4.66653L30.3588 0.121074L29.4776 0.105092C28.9335 0.0952485 28.5963 0.110709 28.5963 0.145509ZM31.8445 4.9271V9.76208H32.5116H33.1787L33.1836 7.02612L33.1886 4.29016L33.8189 6.78003C34.1655 8.14945 34.4799 9.38061 34.5175 9.51599L34.5858 9.76208H35.1874H35.7889V4.9271V0.0921217H35.1218H34.4548V2.62061C34.4548 4.01123 34.4412 5.1355 34.4246 5.11894C34.3948 5.08923 34.0952 3.88992 33.5233 1.51077C33.3625 0.841978 33.2175 0.249157 33.2009 0.193454C33.1745 0.104629 33.0892 0.0921217 32.5077 0.0921217H31.8445V4.9271ZM36.3109 4.93243V9.77273L37.6885 9.75194C38.937 9.73307 39.0906 9.71981 39.3271 9.61037C39.658 9.45727 39.8911 9.22496 40.0462 8.89352C40.1655 8.63874 40.1686 8.55293 40.1848 5.02148C40.2035 0.940993 40.2073 0.983784 39.7893 0.531091C39.4248 0.13636 39.2081 0.0921217 37.6383 0.0921217H36.3109V4.93243ZM20.2858 1.58072C20.3739 1.715 20.3886 1.87637 20.3886 2.70562C20.3886 3.59896 20.3792 3.68639 20.2667 3.83723C20.1619 3.97776 20.0989 4.00307 19.8172 4.01801L19.4896 4.03538V2.72965V1.42391H19.8363C20.1491 1.42391 20.193 1.4392 20.2858 1.58072ZM38.5689 1.57649C38.6871 1.72658 38.6891 1.78008 38.6891 4.8692C38.6891 7.95831 38.6871 8.01182 38.5689 8.1619C38.4654 8.29323 38.4049 8.31448 38.1338 8.31448H37.819V4.8692V1.42391H38.1338C38.4049 1.42391 38.4654 1.44516 38.5689 1.57649ZM29.6728 4.91332C29.7606 5.73376 29.8183 6.41905 29.8011 6.43625C29.7839 6.45339 29.6165 6.45958 29.429 6.45003L29.0882 6.4326L29.2605 4.75895C29.3714 3.68199 29.4472 3.14522 29.4731 3.25344C29.4952 3.34592 29.5851 4.09288 29.6728 4.91332ZM15.9707 6.24441L15.9983 6.46155H15.6267C15.369 6.46155 15.2548 6.43938 15.2538 6.38917C15.2502 6.21813 15.5588 3.29768 15.5887 3.21893C15.6068 3.17116 15.694 3.7835 15.7824 4.57968C15.8708 5.37585 15.9555 6.12502 15.9707 6.24441ZM9.58144 9.87569C8.96177 9.97291 8.45116 10.3814 8.29205 10.9071C8.18776 11.2517 8.15574 12.2653 8.23347 12.7603C8.33991 13.4381 8.63701 13.986 9.48057 15.0603C10.4497 16.2944 10.4651 16.3278 10.4887 17.2328C10.5061 17.9023 10.498 17.9699 10.3829 18.1159C10.223 18.3189 9.87848 18.3375 9.71027 18.1522C9.61189 18.0438 9.5978 17.9169 9.58161 16.9942L9.56346 15.9578H8.84205H8.12065V17.1343C8.12065 18.4927 8.17633 18.7798 8.51149 19.1502C8.78939 19.4572 9.06995 19.5926 9.59861 19.6746C9.93144 19.7263 10.1382 19.7263 10.471 19.6746C11.2044 19.5608 11.5752 19.2896 11.8719 18.6503C12.0211 18.3287 12.0347 18.2381 12.055 17.4289C12.0914 15.9809 11.9713 15.6691 10.7864 14.1338C9.74414 12.7835 9.71671 12.7273 9.71618 11.9434C9.71572 11.2419 9.76235 11.1518 10.1258 11.1518C10.4323 11.1518 10.4668 11.2502 10.4988 12.2171L10.5278 13.0916L11.2446 13.1079L11.9613 13.1242L11.9367 12.0077C11.9166 11.1027 11.8922 10.8443 11.8077 10.6438C11.6833 10.349 11.3379 10.0374 11.0358 9.94737C10.7309 9.85658 9.94896 9.81807 9.58144 9.87569ZM15.8933 9.87574C15.7497 9.90267 15.5607 9.95252 15.4732 9.98651C15.2088 10.0894 14.8126 10.499 14.6672 10.8202L14.5302 11.1228L14.514 14.7786C14.4984 18.3188 14.5016 18.4444 14.6143 18.7451C14.7675 19.1535 15.0171 19.4471 15.3399 19.5986C15.6665 19.7518 16.1269 19.758 16.4443 19.6132C16.6933 19.4997 17.1278 19.0653 17.2414 18.8164C17.3076 18.6714 17.3167 18.6857 17.4338 19.1205L17.5567 19.5768L17.9721 19.5938L18.3875 19.6108V16.6841V13.7574H17.3724H16.3573V14.4812V15.205H16.6763H16.9954V16.5108C16.9954 17.563 16.9783 17.8493 16.9076 17.9858C16.8057 18.1827 16.5247 18.2822 16.2928 18.2037C15.9845 18.0993 15.9817 18.0723 15.9623 14.9734C15.9524 13.397 15.9611 11.9682 15.9816 11.7984C16.0261 11.4294 16.1633 11.2672 16.4298 11.2684C16.8128 11.2702 16.8794 11.424 16.8794 12.306V13.0047H17.6044H18.3295V12.2626C18.3295 11.3794 18.2567 10.9316 18.0519 10.554C17.8838 10.2442 17.6994 10.0901 17.3489 9.96665C17.0532 9.86254 16.236 9.81147 15.8933 9.87574ZM26.0285 9.87632C25.4302 9.98483 25.049 10.2735 24.8028 10.8043C24.6975 11.0316 24.682 11.1761 24.6815 11.9335C24.6807 13.2708 24.8152 13.6016 25.9498 15.0524C26.9217 16.2951 26.9386 16.3316 26.962 17.2328C26.9794 17.9023 26.9713 17.9699 26.8563 18.1159C26.6963 18.3189 26.3518 18.3375 26.1836 18.1522C26.0852 18.0438 26.0711 17.9169 26.0549 16.9942L26.0368 15.9578H25.3154H24.594V17.1343C24.594 18.4927 24.6497 18.7798 24.9848 19.1502C25.2627 19.4572 25.5433 19.5926 26.0719 19.6746C26.4048 19.7263 26.6115 19.7263 26.9443 19.6746C27.6777 19.5608 28.0486 19.2896 28.3452 18.6503C28.4944 18.3287 28.508 18.2381 28.5283 17.4289C28.5647 15.9803 28.4444 15.6683 27.2582 14.1338C26.3031 12.8984 26.2064 12.7169 26.1721 12.096C26.132 11.369 26.2286 11.1518 26.5922 11.1518C26.9065 11.1518 26.9399 11.2455 26.9722 12.2171L27.0012 13.0916L27.7179 13.1079L28.4346 13.1242L28.41 12.0077C28.39 11.1027 28.3655 10.8443 28.281 10.6438C28.1563 10.3483 27.8112 10.0374 27.5066 9.94633C27.2026 9.85542 26.363 9.81564 26.0285 9.87632ZM30.4524 9.85397C29.6447 9.99549 29.2411 10.3358 29.0327 11.0515C28.9514 11.3308 28.9422 11.8023 28.9575 14.8943C28.9734 18.0969 28.9843 18.4428 29.0773 18.6825C29.2267 19.0679 29.4825 19.3451 29.859 19.5297C30.1675 19.6808 30.2415 19.6926 30.8875 19.6924C31.6727 19.6922 31.95 19.6074 32.2964 19.2616C32.7365 18.8222 32.8283 18.3759 32.8296 16.6671L32.8306 15.3788H32.1056H31.3805V16.5861C31.3805 17.8337 31.3403 18.1136 31.1462 18.2173C30.9458 18.3243 30.7002 18.2833 30.5727 18.1214C30.4543 17.9712 30.4524 17.9188 30.4524 14.7469C30.4524 11.0978 30.4315 11.2676 30.8818 11.2676C31.3206 11.2676 31.3485 11.3408 31.3697 12.5474L31.3878 13.5837H32.1092H32.8306V12.5521C32.8306 11.9847 32.8021 11.3667 32.7673 11.1787C32.6039 10.2962 32.1219 9.90979 31.118 9.85629C30.8317 9.841 30.5322 9.83996 30.4524 9.85397ZM39.2401 9.87453C38.601 9.9765 38.2162 10.2594 37.9582 10.8173L37.79 11.1807L37.7715 14.5681C37.7518 18.1583 37.7625 18.3402 38.0235 18.853C38.1934 19.1865 38.4124 19.392 38.7761 19.559C39.0275 19.6745 39.1588 19.6923 39.7622 19.6924C40.4107 19.6926 40.4813 19.6813 40.796 19.5271C41.1774 19.3401 41.3966 19.0799 41.601 18.5719C41.7313 18.2481 41.7327 18.2143 41.7515 15.04C41.7719 11.5918 41.7501 11.2255 41.4933 10.6966C41.3345 10.3697 41.0027 10.084 40.6318 9.95455C40.367 9.86219 39.5954 9.81784 39.2401 9.87453ZM43.7023 9.87447C43.0818 9.97186 42.6226 10.3341 42.3894 10.9101C42.2568 11.2375 42.2563 11.25 42.2392 14.5677C42.2244 17.4433 42.2346 17.9532 42.3143 18.311C42.5421 19.3327 43.2548 19.7909 44.4856 19.7066C45.3067 19.6504 45.7873 19.3266 46.0632 18.6434L46.2007 18.3029L46.2187 14.9734C46.2313 12.6268 46.2169 11.5418 46.1697 11.298C46.0401 10.6287 45.714 10.1852 45.2142 9.9985C44.8685 9.86937 44.1237 9.80828 43.7023 9.87447ZM0 14.7701V19.6133L1.37761 19.595C2.74727 19.5769 2.75708 19.5759 3.08126 19.4169C3.29437 19.3125 3.46323 19.1766 3.56868 19.0247C3.8797 18.5767 3.88631 18.4865 3.88631 14.7108C3.88631 10.8694 3.88289 10.8286 3.5268 10.4237C3.42749 10.3108 3.23939 10.1614 3.10876 10.0916C2.88596 9.97262 2.78225 9.96358 1.43561 9.94581L0 9.92687V14.7701ZM4.40835 14.7708V19.6057H6.11949H7.83063V18.853V18.1002H6.87355H5.91647V16.7105V15.3209H6.64153H7.36659V14.5971V13.8733H6.64153H5.91647V12.5994V11.3255H6.84455H7.77262V10.6306V9.93579H6.09049H4.40835V14.7708ZM12.4852 14.7563L12.5 19.5768L13.2396 19.593L13.9791 19.6092V14.7725V9.93579H13.2247H12.4704L12.4852 14.7563ZM18.9095 14.7708V19.6057H19.5766H20.2436L20.2484 16.8987L20.2532 14.1917L20.934 16.8843L21.6147 19.5768H22.2198H22.8248V14.7708V9.96474L22.1433 9.94841L21.4617 9.93214L21.4568 12.4383L21.452 14.9445L21.1669 13.7864C21.0102 13.1495 20.734 12.0225 20.5532 11.2821L20.2245 9.93579H19.5671H18.9095V14.7708ZM33.2947 14.7708V19.6057H34.0197H34.7448V17.4923V15.3788H35.2371H35.7294L35.7447 17.4778L35.7599 19.5768L36.4994 19.593L37.239 19.6092V14.7725V9.93579H36.4849H35.7309V11.8756V13.8154H35.2378H34.7448V11.8756V9.93579H34.0197H33.2947V14.7708ZM46.7517 14.7708V19.6057H48.3759H50V18.853V18.1002H49.1009H48.2019V14.018V9.93579H47.4768H46.7517V14.7708ZM2.25795 11.4202C2.37622 11.5702 2.37819 11.6237 2.37819 14.7129C2.37819 17.802 2.37622 17.8555 2.25795 18.0056C2.15226 18.1397 2.09629 18.1581 1.79391 18.1581H1.45012V14.7129V11.2676H1.79391C2.09629 11.2676 2.15226 11.286 2.25795 11.4202ZM40.0209 11.3243C40.0793 11.3554 40.1559 11.4635 40.1911 11.5645C40.2773 11.8112 40.2808 17.736 40.195 17.9614C40.1155 18.17 39.9759 18.2698 39.7606 18.2721C39.5167 18.2746 39.3423 18.1353 39.2717 17.8814C39.1934 17.6001 39.1895 11.9501 39.2674 11.679C39.2983 11.5713 39.3676 11.4347 39.4214 11.3754C39.5282 11.2576 39.8454 11.2305 40.0209 11.3243ZM44.5556 11.3783L44.6926 11.4889V14.7708V18.0526L44.5556 18.1632C44.4016 18.2877 44.1014 18.3062 43.9625 18.1997C43.7401 18.0293 43.7355 17.9579 43.7355 14.714V11.5518L43.8779 11.4097C44.0532 11.2347 44.3604 11.2204 44.5556 11.3783Z" fill="white"/>
</svg>
